<?xml version="1.0" encoding="UTF-8"?> <svg xmlns="http://www.w3.org/2000/svg" width="105" height="86" viewBox="0 0 105 86" fill="none"> <path fill-rule="evenodd" clip-rule="evenodd" d="M70.2729 61.2943L79.4957 76.0961C80.0507 76.9864 80.0089 78.1264 79.3886 78.9739C78.7682 79.8214 77.6957 80.2071 76.6779 79.9479L71.8832 78.7254L70.8675 83.5682C70.6521 84.5957 69.8325 85.3886 68.7986 85.5718C67.7646 85.755 66.7232 85.2911 66.1682 84.3996L57.5625 70.5911C57.8464 70.3768 58.1164 70.1443 58.3725 69.8936C60.6804 70.3811 63.1146 69.8818 65.0614 68.4697C67.0093 67.0521 68.2371 64.8932 68.4868 62.5511C69.135 62.2125 69.7361 61.7893 70.2729 61.2943ZM34.7304 61.2911C35.265 61.7829 35.8639 62.2039 36.5132 62.5446C36.7618 64.89 37.9896 67.0521 39.9364 68.4675C41.8821 69.8807 44.3196 70.3811 46.6275 69.8936C46.8836 70.1443 47.1546 70.3768 47.4375 70.5911L38.8318 84.3996C38.2757 85.2911 37.2343 85.755 36.2004 85.5718C35.1664 85.3886 34.3479 84.5957 34.1325 83.5682L33.1168 78.7254L28.3221 79.9479C27.3043 80.2071 26.2307 79.8214 25.6114 78.9739C24.9911 78.1264 24.9493 76.9864 25.5043 76.0961L34.7304 61.2911ZM39.2004 40.9789C39.2004 40.9704 39.2004 40.9254 39.2004 40.9104C39.1929 39.0386 40.0864 37.2761 41.6014 36.1768C43.1325 35.0625 45.1114 34.7636 46.905 35.3732L46.9125 35.3754C47.1407 35.4536 47.3904 35.3625 47.5168 35.1579L47.5307 35.1375C48.5968 33.4189 50.4771 32.3732 52.5 32.3732C54.2796 32.3732 55.9468 33.1811 57.0482 34.5439C57.285 34.7614 57.4543 35.0154 57.5732 35.265C57.7082 35.3925 57.9054 35.4375 58.0875 35.3754L58.095 35.3732C59.8886 34.7636 61.8675 35.0625 63.3975 36.1757C64.9296 37.2879 65.8254 39.0761 65.8007 40.9704L65.7996 40.9843C65.7996 41.2221 65.9614 41.43 66.1929 41.4857L66.2207 41.4932C68.1825 41.9775 69.7586 43.4421 70.3832 45.3654C70.9714 47.1782 70.6382 49.1561 69.5079 50.67C69.4436 50.7675 69.3611 50.8746 69.2529 50.9925C69.1286 51.1586 69.1179 51.3836 69.2229 51.5604C69.2796 51.63 69.3257 51.6954 69.3675 51.765C70.4121 53.2596 70.7004 55.1614 70.1336 56.9079C69.5464 58.7079 68.1236 60.1114 66.3139 60.6718L66.3064 60.6739C66.0771 60.7446 65.9282 60.9654 65.9464 61.2043V61.2107C66.1007 63.2336 65.1943 65.1932 63.5507 66.3879C61.9554 67.5471 59.8864 67.8214 58.0479 67.1282L57.7746 67.0329C57.5818 66.9986 57.3825 67.0779 57.2657 67.2429L57.2625 67.2471C56.1696 68.7964 54.3943 69.7168 52.5 69.7168C50.6046 69.7168 48.8282 68.7954 47.7375 67.2461L47.7343 67.2418C47.6164 67.0746 47.4139 66.9964 47.22 67.0339L46.9886 67.1143C45.1414 67.8247 43.0543 67.5536 41.4482 66.3868C39.8057 65.1932 38.8993 63.2336 39.0536 61.2096V61.2043C39.0707 60.9814 38.9421 60.7757 38.7396 60.6911C38.6743 60.6718 38.6111 60.6504 38.55 60.6268C36.8057 60.0407 35.4375 58.6607 34.8664 56.9046C34.3029 55.1668 34.5868 53.2704 35.625 51.7768C35.67 51.7029 35.7182 51.6321 35.7793 51.5582C35.8886 51.3718 35.8693 51.1339 35.7268 50.9657L35.6732 50.9004C34.3982 49.3596 33.9986 47.2714 34.6179 45.3632C35.2425 43.4454 36.8111 41.9839 38.7664 41.4975L38.8071 41.4857C39.0407 41.4289 39.2036 41.2189 39.2004 40.9789ZM29.0282 62.5404H4.2C1.88036 62.5404 0 60.66 0 58.3404V4.2C0 1.88036 1.88036 0 4.2 0H100.8C103.12 0 105 1.88036 105 4.2V58.3404C105 60.66 103.12 62.5404 100.8 62.5404H75.9729L73.7914 59.04C73.9082 58.7668 74.0132 58.4871 74.1064 58.2021C74.835 55.9586 74.7418 53.5661 73.8986 51.4296C74.9657 49.1561 75.1532 46.5279 74.3582 44.0764C73.5611 41.6229 71.8629 39.6054 69.6621 38.3925C69.0879 36.1661 67.7561 34.1754 65.8521 32.7943C63.9536 31.4132 61.65 30.7618 59.355 30.9032C57.5207 29.1846 55.08 28.1946 52.5 28.1946C49.9232 28.1946 47.4825 29.1846 45.6482 30.9021C43.3575 30.7596 41.0496 31.4111 39.1436 32.7975C37.2439 34.1764 35.9121 36.165 35.3389 38.3914C33.1382 39.6043 31.4432 41.6186 30.645 44.0689C29.8468 46.5279 30.0343 49.1571 31.1014 51.4307C30.2582 53.5671 30.1661 55.9575 30.8925 58.1936C30.9857 58.4818 31.0918 58.7646 31.2096 59.04L29.0282 62.5404ZM52.5 42.1629C57.4746 42.1629 61.5129 46.2011 61.5129 51.1757C61.5129 56.1504 57.4746 60.1886 52.5 60.1886C47.5254 60.1886 43.4871 56.1504 43.4871 51.1757C43.4871 46.2011 47.5254 42.1629 52.5 42.1629ZM52.5 46.3629C55.1561 46.3629 57.3129 48.5196 57.3129 51.1757C57.3129 53.8318 55.1561 55.9886 52.5 55.9886C49.8439 55.9886 47.6871 53.8318 47.6871 51.1757C47.6871 48.5196 49.8439 46.3629 52.5 46.3629ZM14.7482 10.0211V8.73643C14.7482 7.57714 15.6889 6.63643 16.8482 6.63643C18.0075 6.63643 18.9482 7.57714 18.9482 8.73643V10.0211H22.1389C23.2982 10.0211 24.2389 10.9618 24.2389 12.1211C24.2389 13.2793 23.2982 14.2211 22.1389 14.2211H18.9482V18.4854H19.1271C22.5343 18.4854 25.2964 21.2475 25.2964 24.6546V24.9793C25.2964 28.3864 22.5343 31.1496 19.1271 31.1496H18.9482V32.1032C18.9482 33.2625 18.0075 34.2032 16.8482 34.2032C15.6889 34.2032 14.7482 33.2625 14.7482 32.1032V31.1496H11.5575C10.3982 31.1496 9.4575 30.2079 9.4575 29.0496C9.4575 27.8904 10.3982 26.9496 11.5575 26.9496H14.7482V22.6854H14.5704C11.1621 22.6854 8.4 19.9221 8.4 16.515V16.1904C8.4 12.7832 11.1621 10.0211 14.5704 10.0211H14.7482ZM18.9482 22.6854V26.9496H19.1271C20.2146 26.9496 21.0964 26.0668 21.0964 24.9793V24.6546C21.0964 23.5671 20.2146 22.6854 19.1271 22.6854H18.9482ZM31.5 24.72C30.3407 24.72 29.4 23.7793 29.4 22.62C29.4 21.4618 30.3407 20.52 31.5 20.52H94.5C95.6593 20.52 96.6 21.4618 96.6 22.62C96.6 23.7793 95.6593 24.72 94.5 24.72H31.5ZM14.7482 14.2211H14.5704C13.4818 14.2211 12.6 15.1029 12.6 16.1904V16.515C12.6 17.6036 13.4818 18.4854 14.5704 18.4854H14.7482V14.2211ZM31.5 14.22C30.3407 14.22 29.4 13.2793 29.4 12.12C29.4 10.9618 30.3407 10.02 31.5 10.02H94.5C95.6593 10.02 96.6 10.9618 96.6 12.12C96.6 13.2793 95.6593 14.22 94.5 14.22H31.5Z" fill="black"></path> <path d="M36.5131 62.5446C35.8638 62.2039 35.2649 61.7828 34.7303 61.291L25.5042 76.096C24.9492 76.9864 24.991 78.1264 25.6113 78.9739C26.2306 79.8214 27.3042 80.2071 28.322 79.9478L33.1167 78.7253L34.1324 83.5682C34.3478 84.5957 35.1663 85.3885 36.2003 85.5717C37.2342 85.755 38.2756 85.291 38.8317 84.3996L47.4374 70.591C47.1545 70.3767 46.8835 70.1442 46.6274 69.8935C44.3195 70.381 41.882 69.8807 39.9363 68.4674C37.9895 67.0521 36.7617 64.8899 36.5131 62.5446Z" fill="#1550E7"></path> <path d="M79.4957 76.0957L70.2729 61.2939C69.7361 61.7889 69.135 62.2122 68.4868 62.5507C68.2371 64.8929 67.0093 67.0518 65.0614 68.4693C63.1146 69.8815 60.6804 70.3807 58.3725 69.8932C58.1164 70.1439 57.8464 70.3764 57.5625 70.5907L66.1682 84.3993C66.7232 85.2907 67.7646 85.7547 68.7986 85.5715C69.8325 85.3882 70.6521 84.5954 70.8675 83.5679L71.8832 78.725L76.6779 79.9475C77.6957 80.2068 78.7682 79.8211 79.3886 78.9736C80.0089 78.1261 80.0507 76.9861 79.4957 76.0957Z" fill="#1550E7"></path> <path d="M57.3132 51.1757C57.3132 48.5196 55.1564 46.3628 52.5004 46.3628C49.8443 46.3628 47.6875 48.5196 47.6875 51.1757C47.6875 53.8317 49.8443 55.9885 52.5004 55.9885C55.1564 55.9885 57.3132 53.8317 57.3132 51.1757Z" fill="#1550E7"></path> </svg> 