<svg aria-hidden="true" style="position:absolute;width:0;height:0;overflow:hidden" xmlns="http://www.w3.org/2000/svg"><defs><symbol id="icon-phone" viewBox="0 0 32 32"><path fill="#111" style="fill:var(--color1, #111)" d="M12.984 7.4a.644.644 0 0 0 0-.933L6.712.2a.645.645 0 0 0-.934 0L3.643 2.333l7.206 7.2L12.984 7.4zm.267 11.333c-3.269-3.267-4.804-6.6-3.67-7.867l-7.273-7.2L.974 4.999c-1.001 1-1.201 2.467-.734 4.4 2.002 7.4 14.946 20.333 22.352 22.333.667.2 1.268.267 1.802.267 1.068 0 1.935-.333 2.535-1l1.401-1.4-7.206-7.133c-1.268 1.067-4.671-.467-7.873-3.733zM31.8 25.267 25.528 19a.645.645 0 0 0-.934 0l-2.135 2.133 7.206 7.2L31.8 26.2a.644.644 0 0 0 0-.933z"/><path fill="#111" style="fill:var(--color1, #111)" d="M12.984 6.467a.644.644 0 0 1 0 .933l-2.135 2.133-7.206-7.2L5.778.2a.645.645 0 0 1 .934 0l6.272 6.267z"/><path fill="#1550e7" style="fill:var(--color2, #1550e7)" d="m25.528 19 6.272 6.267a.644.644 0 0 1 0 .933l-2.135 2.133-7.206-7.2L24.594 19a.645.645 0 0 1 .934 0zM12.984 6.467a.644.644 0 0 1 0 .933l-2.135 2.133-7.206-7.2L5.778.2a.645.645 0 0 1 .934 0l6.272 6.267z"/></symbol><symbol id="icon-email" viewBox="0 0 50 32"><path fill="#111" style="fill:var(--color1, #111)" d="M15.274 15.854 0 25.799V5.909l15.274 9.945zm19.452 0L50 25.799V5.909l-15.274 9.945zm-2.232 1.457-6.829 4.445c-.201.128-.433.195-.665.195s-.463-.067-.665-.195l-6.829-4.445L.055 28.671a3.669 3.669 0 0 0 3.604 3.037h42.683a3.662 3.662 0 0 0 3.604-3.037l-.963-.622-16.488-10.738zM25 19.274 49.945 3.036a3.662 3.662 0 0 0-3.604-3.037H3.658A3.668 3.668 0 0 0 .054 3.036l.957.622 23.988 15.616z"/><path fill="#1550e7" style="fill:var(--color2, #1550e7)" d="m50.001 25.798-15.274-9.945 15.274-9.945v19.89z"/></symbol><symbol id="icon-telegram" viewBox="0 0 33 32"><path fill="#111" style="fill:var(--color1, #111)" d="m17.611 27.139-3.726 3.726a.664.664 0 1 0 .94.94l3.726-3.726a.664.664 0 1 0-.94-.94z"/><path fill="#111" style="fill:var(--color1, #111)" d="M31.216.05.704 12.029a.705.705 0 0 0-.034 1.299l6.745 3.061a.71.71 0 0 1 .382.431l2.894 9.21a.706.706 0 0 0 1.098.352l5.037-3.795a.705.705 0 0 1 .819-.021l8.448 5.7a.705.705 0 0 0 1.088-.457L32.166.835a.706.706 0 0 0-.952-.785zM12.727 17.695l-.91 5.174-2.35-7.409 16.109-9.998-12.849 12.232zm-7.865 1.352a.664.664 0 0 0-.94 0L.196 22.773a.664.664 0 1 0 .94.94l3.726-3.726a.664.664 0 0 0 0-.94zm1.912 8.092-3.726 3.726a.665.665 0 0 0 .94.941l3.726-3.726a.664.664 0 1 0-.94-.94z"/><path fill="#1550e7" style="fill:var(--color2, #1550e7)" d="M3.921 19.047a.664.664 0 1 1 .94.94l-3.726 3.726a.664.664 0 1 1-.94-.94l3.726-3.726zM3.049 30.865l3.726-3.726a.664.664 0 1 1 .94.94l-3.726 3.726a.664.664 0 1 1-.94-.94zM17.611 27.139l-3.726 3.726a.664.664 0 1 0 .94.94l3.726-3.726a.664.664 0 1 0-.94-.94z"/></symbol><symbol id="icon-schedule" viewBox="0 0 32 32"><path fill="#1550e7" style="fill:var(--color2, #1550e7)" d="M28.571 3.429H24V1.143A1.14 1.14 0 0 0 22.857 0a1.14 1.14 0 0 0-1.143 1.143v2.286H10.285V1.143A1.14 1.14 0 0 0 9.142 0a1.14 1.14 0 0 0-1.143 1.143v2.286H3.428A3.428 3.428 0 0 0 0 6.857V8h32V6.857a3.428 3.428 0 0 0-3.428-3.428zM12.572 13.714H6.858v3.428h5.714v-3.428z"/><path fill="#111" style="fill:var(--color1, #111)" d="M25.143 22.857h-5.714v3.429h5.714v-3.429zM25.143 13.714h-5.714v3.428h5.714v-3.428z"/><path fill="#111" style="fill:var(--color1, #111)" d="M0 28.571a3.428 3.428 0 0 0 3.428 3.428h25.143a3.428 3.428 0 0 0 3.428-3.428V10.285h-32v18.286zm17.143-14.857a2.287 2.287 0 0 1 2.285-2.285h5.714a2.287 2.287 0 0 1 2.286 2.285v3.429a2.283 2.283 0 0 1-2.286 2.285h-5.714a2.287 2.287 0 0 1-2.285-2.285v-3.429zm0 9.143a2.287 2.287 0 0 1 2.285-2.285h5.714a2.287 2.287 0 0 1 2.286 2.285v3.428a2.283 2.283 0 0 1-2.286 2.286h-5.714a2.283 2.283 0 0 1-2.285-2.286v-3.428zM4.571 13.714a2.287 2.287 0 0 1 2.285-2.285h5.714a2.287 2.287 0 0 1 2.285 2.285v3.429a2.287 2.287 0 0 1-2.285 2.285H6.856a2.287 2.287 0 0 1-2.285-2.285v-3.429zm0 9.143a2.287 2.287 0 0 1 2.285-2.285h5.714a2.287 2.287 0 0 1 2.285 2.285v3.428a2.287 2.287 0 0 1-2.285 2.286H6.856a2.283 2.283 0 0 1-2.285-2.286v-3.428z"/><path fill="#111" style="fill:var(--color1, #111)" d="M12.572 22.857H6.858v3.429h5.714v-3.429z"/></symbol></defs></svg>