<?xml version="1.0" encoding="UTF-8"?> <svg xmlns="http://www.w3.org/2000/svg" width="60" height="60" viewBox="0 0 60 60" fill="none"> <path d="M57.2 16.5517H56C56 16.6552 56 18.6207 56 18.6207H57.2C57.7 18.6207 58 19.0345 58 19.4483V32.069C58 32.5862 58.5 33.1035 59 33.1035C59.5 33.1035 60 32.5862 60 32.069V19.4483C60 17.8966 58.7 16.5517 57.2 16.5517ZM11.7 15.8276L19 10.3448L10 13.4483C10.8 14.069 11.4 14.8966 11.7 15.8276Z" fill="#111111"></path> <path d="M34 2.06897V1.13793C34 0.517241 33.5 0 32.9 0H1.1C0.5 0 0 0.517241 0 1.13793V50.5862C0 51.2069 0.5 51.7241 1.1 51.7241H2V5.27586C2 3.51724 3.4 2.06897 5.1 2.06897H34Z" fill="#111111"></path> <path d="M25 6.2069H38V5.27587C38 4.65518 37.5 4.13794 36.9 4.13794H5.1C4.5 4.13794 4 4.65518 4 5.27587V54.7241C4 55.3448 4.5 55.8621 5.1 55.8621H6V13.4483C6 12.7241 6.7 12.5172 6.7 12.4138L25 6.2069ZM9 8.27587H8V9.31035C8 9.82759 7.5 10.3448 7 10.3448C6.5 10.3448 6 9.82759 6 9.31035V7.24139C6 6.72415 6.5 6.2069 7 6.2069H9C9.5 6.2069 10 6.72415 10 7.24139C10 7.75863 9.5 8.27587 9 8.27587ZM15 8.27587H13C12.5 8.27587 12 7.75863 12 7.24139C12 6.72415 12.5 6.2069 13 6.2069H15C15.5 6.2069 16 6.72415 16 7.24139C16 7.75863 15.5 8.27587 15 8.27587Z" fill="#1550E7"></path> <path d="M41 8.27588H25.3L11.6 18.4138C11.4 18.5173 11.2 18.8276 10.6 18.5173C10.2 18.3104 10 18 10 17.5862C10 16.2414 9.2 15.1035 8 14.6897V58.9655C8 59.5862 8.5 60 9 60H41C41.6 60 42 59.4828 42 58.9655V9.31036C42 8.79312 41.5 8.27588 41 8.27588ZM39 57.931H11C10.5 57.931 10 57.4138 10 56.8966C10 56.3793 10.5 55.8621 11 55.8621H39C39.5 55.8621 40 56.3793 40 56.8966C40 57.4138 39.5 57.931 39 57.931ZM39 51.7242H11C10.5 51.7242 10 51.2069 10 50.6897C10 50.1724 10.5 49.6552 11 49.6552H39C39.5 49.6552 40 50.1724 40 50.6897C40 51.2069 39.5 51.7242 39 51.7242ZM39 45.5173H11C10.5 45.5173 10 45 10 44.4828C10 43.9655 10.5 43.4483 11 43.4483H39C39.5 43.4483 40 43.9655 40 44.4828C40 45 39.5 45.5173 39 45.5173ZM39 39.3104H11C10.5 39.3104 10 38.7931 10 38.2759C10 37.7586 10.5 37.2414 11 37.2414H39C39.5 37.2414 40 37.7586 40 38.2759C40 38.7931 39.5 39.3104 39 39.3104ZM39 33.1035H11C10.5 33.1035 10 32.5862 10 32.069C10 31.5517 10.5 31.0345 11 31.0345H39C39.5 31.0345 40 31.5517 40 32.069C40 32.5862 39.5 33.1035 39 33.1035ZM39 26.8966H11C10.5 26.8966 10 26.3793 10 25.8621C10 25.3448 10.5 24.8276 11 24.8276H39C39.5 24.8276 40 25.3448 40 25.8621C40 26.3793 39.5 26.8966 39 26.8966ZM39 20.6897H15C14.5 20.6897 14 20.1724 14 19.6552C14 19.1379 14.5 18.6207 15 18.6207H39C39.5 18.6207 40 19.1379 40 19.6552C40 20.1724 39.5 20.6897 39 20.6897ZM39 14.4828H23C22.5 14.4828 22 13.9655 22 13.4483C22 12.9311 22.5 12.4138 23 12.4138H39C39.5 12.4138 40 12.9311 40 13.4483C40 13.9655 39.5 14.4828 39 14.4828ZM51 59.069C51.6 58.0345 52 57 52.5 55.8621H49.6C50 57 50.4 58.0345 51 59.069ZM48 47.3793C48 49.5517 48.3 51.7242 48.9 53.7931H53.2C53.8 51.7242 54.1 49.5517 54.1 47.3793V39.3104H48.1V47.3793H48Z" fill="#111111"></path> <path d="M52.5 55.8621C52 57 51.6 58.0345 51 59.069C50.4 58.0345 50 57 49.6 55.8621H52.5Z" fill="#111111"></path> <path d="M52.4996 55.8621C51.9996 57 51.5996 58.0345 50.9996 59.069C50.3996 58.0345 49.9996 57 49.5996 55.8621H52.4996Z" fill="#1550E7"></path> <path d="M54 35.1724H48V37.2414H54V35.1724Z" fill="#111111"></path> <path d="M54 16.5517H48V33.1034H54V16.5517Z" fill="#1550E7"></path> <path d="M52 11.3793C52 10.8621 51.5 10.3448 51 10.3448C50.5 10.3448 50 10.8621 50 11.3793V14.4828H52V11.3793Z" fill="#111111"></path> </svg> 