<?xml version="1.0" encoding="UTF-8"?> <svg xmlns="http://www.w3.org/2000/svg" width="96" height="75" viewBox="0 0 96 75" fill="none"> <path d="M92.2501 7.5H42.7501L39.3663 2.35785C37.9225 0.950028 36.018 0.112468 34.0046 0H13.6838C12.8331 0.00658325 12.0198 0.350758 11.4227 0.956846C10.8257 1.56293 10.4938 2.38131 10.5001 3.23204V16.5H13.5001V3.23204C13.495 3.17716 13.5112 3.12241 13.5454 3.07919C13.5796 3.03597 13.6292 3.00761 13.6838 3H34.0046C35.1148 3.10727 36.1672 3.54553 37.0253 4.25798L40.244 9.14915L41.133 10.5H92.2033C92.5506 10.651 92.8329 10.9205 93.0001 11.2603V19.5H30.7326C30.8442 19.6073 30.9664 19.7098 31.0691 19.8208L31.2368 20.0024L32.8802 22.5H93.0001V52.2679C93.0052 52.3228 92.989 52.3776 92.9548 52.4208C92.9206 52.464 92.871 52.4924 92.8164 52.5H88.5001V55.5H92.8164C93.6672 55.4935 94.4805 55.1494 95.0776 54.5433C95.6746 53.9372 96.0065 53.1187 96.0001 52.2679V11.2028C95.8977 10.2479 95.4685 9.35767 94.7851 8.68291C94.1018 8.00814 93.2062 7.59025 92.2501 7.5Z" fill="#111111"></path> <path d="M81.7501 27H32.2501L28.8663 21.8579C27.4225 20.45 25.518 19.6125 23.5046 19.5H3.18379C2.33306 19.5066 1.51978 19.8508 0.922753 20.4568C0.325731 21.0629 -0.00614754 21.8813 9.03062e-05 22.732V39H85.5001V30.7028C85.3977 29.7479 84.9685 28.8577 84.2852 28.1829C83.6018 27.5081 82.7062 27.0903 81.7501 27ZM9.03062e-05 71.7679C-0.00628903 72.6187 0.325544 73.4372 0.922596 74.0433C1.51965 74.6494 2.33302 74.9936 3.18379 75H82.3164C83.1672 74.9935 83.9805 74.6494 84.5776 74.0433C85.1746 73.4372 85.5065 72.6187 85.5001 71.7679V42H9.03062e-05V71.7679Z" fill="#111111"></path> <path d="M30.75 19.5H93V22.5H32.8803L30.75 19.5Z" fill="#1550E7"></path> <path d="M0 39H85.5V42H0V39Z" fill="#1550E7"></path> </svg> 