<?xml version="1.0" encoding="UTF-8"?> <svg xmlns="http://www.w3.org/2000/svg" width="55" height="57" viewBox="0 0 55 57" fill="none"> <path d="M27.4918 0C27.7433 0 27.9845 0.0999064 28.1624 0.277741C28.3402 0.455576 28.4401 0.696772 28.4401 0.948268V5.68961C28.4401 5.9411 28.3402 6.1823 28.1624 6.36013C27.9845 6.53797 27.7433 6.63787 27.4918 6.63787C27.2403 6.63787 26.9992 6.53797 26.8213 6.36013C26.6435 6.1823 26.5436 5.9411 26.5436 5.68961V0.948268C26.5436 0.696772 26.6435 0.455576 26.8213 0.277741C26.9992 0.0999064 27.2403 0 27.4918 0ZM11.4021 12.7525C11.4897 12.8428 11.5943 12.9147 11.7099 12.9641C11.8255 13.0136 11.9498 13.0395 12.0755 13.0405C12.2013 13.0415 12.3259 13.0174 12.4423 12.9697C12.5587 12.9221 12.6644 12.8517 12.7533 12.7628C12.8422 12.6739 12.9125 12.5682 12.9602 12.4518C13.0079 12.3355 13.032 12.2108 13.031 12.0851C13.0301 11.9594 13.0041 11.8351 12.9547 11.7194C12.9052 11.6038 12.8333 11.4992 12.7431 11.4116L9.38941 8.06028C9.30178 7.97039 9.19716 7.8988 9.08164 7.84965C8.96612 7.80051 8.84199 7.7748 8.71645 7.774C8.59092 7.77321 8.46647 7.79735 8.35034 7.84502C8.2342 7.89269 8.12869 7.96295 8.03992 8.05172C7.95115 8.14049 7.88089 8.24601 7.83321 8.36214C7.78554 8.47828 7.7614 8.60272 7.7622 8.72826C7.76299 8.8538 7.78871 8.97793 7.83785 9.09345C7.88699 9.20897 7.95858 9.31358 8.04847 9.40122L11.4021 12.7525ZM5.68937 26.5579L0.948031 26.5598C0.696534 26.5599 0.455364 26.6599 0.277573 26.8377C0.0997832 27.0156 -6.28444e-05 27.2568 2.96763e-08 27.5083C6.29037e-05 27.7598 0.10003 28.001 0.277909 28.1788C0.455788 28.3566 0.697009 28.4564 0.948505 28.4564L5.68937 28.4545C5.8139 28.4545 5.9372 28.4299 6.05224 28.3822C6.16728 28.3345 6.27179 28.2646 6.35983 28.1766C6.44786 28.0885 6.51768 27.9839 6.56531 27.8689C6.61293 27.7538 6.63743 27.6305 6.6374 27.506C6.63737 27.3814 6.61281 27.2581 6.56513 27.1431C6.51744 27.0281 6.44757 26.9236 6.35949 26.8355C6.27141 26.7475 6.16686 26.6777 6.0518 26.63C5.93674 26.5824 5.8139 26.5579 5.68937 26.5579ZM43.5969 42.247C43.5094 42.1568 43.4048 42.0848 43.2892 42.0354C43.1735 41.9859 43.0493 41.96 42.9235 41.959C42.7978 41.9581 42.6731 41.9821 42.5567 42.0298C42.4404 42.0775 42.3347 42.1478 42.2458 42.2367C42.1568 42.3256 42.0865 42.4313 42.0388 42.5477C41.9911 42.664 41.9671 42.7887 41.968 42.9144C41.969 43.0402 41.9949 43.1645 42.0444 43.2801C42.0938 43.3957 42.1657 43.5003 42.256 43.5879L45.6096 46.9393C45.6973 47.0291 45.8019 47.1007 45.9174 47.1499C46.0329 47.199 46.1571 47.2247 46.2826 47.2255C46.4081 47.2263 46.5326 47.2022 46.6487 47.1545C46.7649 47.1068 46.8704 47.0366 46.9591 46.9478C47.0479 46.859 47.1182 46.7535 47.1658 46.6374C47.2135 46.5212 47.2377 46.3968 47.2369 46.2713C47.2361 46.1457 47.2103 46.0216 47.1612 45.9061C47.1121 45.7906 47.0405 45.6859 46.9506 45.5983L43.5969 42.247ZM11.4021 42.247L8.04847 45.5983C7.95858 45.6859 7.88699 45.7906 7.83785 45.9061C7.78871 46.0216 7.76299 46.1457 7.7622 46.2713C7.7614 46.3968 7.78554 46.5212 7.83321 46.6374C7.88089 46.7535 7.95115 46.859 8.03992 46.9478C8.12869 47.0366 8.2342 47.1068 8.35034 47.1545C8.46647 47.2022 8.59092 47.2263 8.71645 47.2255C8.84199 47.2247 8.96612 47.199 9.08164 47.1499C9.19716 47.1007 9.30178 47.0291 9.38941 46.9393L12.7431 43.5879C12.8333 43.5003 12.9052 43.3957 12.9547 43.2801C13.0041 43.1645 13.0301 43.0402 13.031 42.9144C13.032 42.7887 13.0079 42.664 12.9602 42.5477C12.9125 42.4313 12.8422 42.3256 12.7533 42.2367C12.6644 42.1478 12.5587 42.0775 12.4423 42.0298C12.3259 41.9821 12.2013 41.9581 12.0755 41.959C11.9498 41.96 11.8255 41.9859 11.7099 42.0354C11.5943 42.0848 11.4897 42.1568 11.4021 42.247ZM54.051 26.5431L49.3097 26.545C49.0582 26.5451 48.817 26.6451 48.6392 26.823C48.4614 27.0008 48.3616 27.2421 48.3617 27.4936C48.3617 27.745 48.4617 27.9862 48.6396 28.164C48.8174 28.3418 49.0587 28.4416 49.3102 28.4416L54.052 28.4397C54.3035 28.4396 54.5446 28.3397 54.7224 28.1618C54.9002 27.9839 55.0001 27.7427 55 27.4912C54.9999 27.2397 54.9 26.9985 54.7221 26.8207C54.5442 26.6429 54.3025 26.5431 54.051 26.5431ZM42.9167 13.021C43.0414 13.0212 43.1648 12.9968 43.2799 12.9491C43.395 12.9014 43.4996 12.8315 43.5876 12.7433L46.9395 9.38918C47.1173 9.21123 47.2172 8.96993 47.2171 8.71837C47.217 8.4668 47.117 8.22558 46.939 8.04776C46.7611 7.86994 46.5198 7.77009 46.2682 7.77018C46.0166 7.77027 45.7754 7.87029 45.5976 8.04823L42.2458 11.4023C42.1132 11.535 42.0229 11.704 41.9864 11.8879C41.9498 12.0719 41.9687 12.2626 42.0405 12.4359C42.1123 12.6091 42.2339 12.7572 42.3898 12.8614C42.5458 12.9655 42.7292 13.0211 42.9167 13.021ZM25.603 56.8961H29.3961C30.9912 56.8951 32.5325 56.3195 33.7377 55.2745C34.9429 54.2296 35.7311 52.7853 35.9581 51.2065H19.041C19.2679 52.7853 20.0562 54.2296 21.2614 55.2745C22.4665 56.3195 24.0079 56.8951 25.603 56.8961Z" fill="#1550E7"></path> <path d="M29.3961 56.896H25.603C24.0079 56.8951 22.4666 56.3194 21.2614 55.2745C20.0562 54.2295 19.2679 52.7853 19.041 51.2064H35.9581C35.7312 52.7853 34.9429 54.2295 33.7377 55.2745C32.5326 56.3194 30.9912 56.8951 29.3961 56.896Z" fill="#111111"></path> <path d="M36.0337 46.4651H18.9648V49.3099H36.0337V46.4651Z" fill="#1550E7"></path> <path d="M33.1128 33.7773C34.6206 32.3075 34.7154 29.5006 34.5637 27.7653C31.3301 29.0265 29.481 32.9334 28.7603 34.792C30.6948 35.048 32.1646 34.7066 33.1128 33.7773ZM20.444 27.7653C20.3017 29.311 20.2923 32.2127 21.8853 33.7773C22.8431 34.7066 24.3034 35.048 26.2379 34.792C25.5267 32.9334 23.6776 29.0265 20.444 27.7653Z" fill="#111111"></path> <path d="M41.8188 17.8559C40.4875 15.4636 38.5753 13.4452 36.2584 11.9868C33.9415 10.5284 31.2946 9.67698 28.562 9.51112H28.5525C27.8481 9.47318 27.1422 9.47318 26.4379 9.51112C23.7052 9.67698 21.0583 10.5284 18.7414 11.9868C16.4246 13.4452 14.5123 15.4636 13.1811 17.8559C11.7626 20.3459 10.9938 23.1531 10.9458 26.0185C10.8977 28.8838 11.5719 31.7152 12.9061 34.2514L18.3397 44.5686H26.5516V36.66C26.0492 36.7339 25.5422 36.7719 25.0344 36.7738C24.2158 36.8134 23.3976 36.6877 22.6286 36.4043C21.8596 36.1208 21.1556 35.6853 20.5586 35.1238C17.5905 32.2221 18.6715 26.5989 18.719 26.3618C18.7435 26.2396 18.7919 26.1234 18.8615 26.02C18.9312 25.9166 19.0205 25.8279 19.1245 25.7592C19.2285 25.6904 19.3451 25.6429 19.4675 25.6194C19.59 25.5959 19.7158 25.5968 19.8379 25.6222C23.906 26.4377 26.3146 30.3066 27.4999 32.8859C28.6853 30.3066 31.0939 26.4377 35.1619 25.6222C35.284 25.5968 35.4099 25.5959 35.5323 25.6194C35.6547 25.6429 35.7713 25.6904 35.8753 25.7592C35.9793 25.8279 36.0687 25.9166 36.1383 26.02C36.2079 26.1234 36.2563 26.2396 36.2809 26.3618C36.3283 26.5989 37.4093 32.2221 34.4412 35.1238C33.8442 35.6853 33.1402 36.1208 32.3712 36.4043C31.6022 36.6877 30.784 36.8134 29.9654 36.7738C29.4576 36.7719 28.9506 36.7339 28.4482 36.66V44.5686H36.6602L42.0938 34.2514C43.428 31.7152 44.1021 28.8838 44.0541 26.0185C44.006 23.1531 43.2373 20.3459 41.8188 17.8559Z" fill="#111111"></path> </svg> 