<?xml version="1.0" encoding="UTF-8"?> <svg xmlns="http://www.w3.org/2000/svg" width="123" height="87" viewBox="0 0 123 87" fill="none"> <path fill-rule="evenodd" clip-rule="evenodd" d="M4.062 79.8941H6.20317V78.3882H0.0972915V79.8941H2.23847V84.7176H4.062V79.8941ZM13.7408 82.0706C13.7643 81.7647 13.7761 81.6 13.7761 81.5765C13.7761 80.9176 13.631 80.3412 13.3408 79.8471C13.0584 79.3451 12.6663 78.9608 12.1643 78.6941C11.6623 78.4275 11.1016 78.2941 10.4819 78.2941C9.84665 78.2941 9.27018 78.4353 8.75253 78.7176C8.24273 78.9922 7.83881 79.3804 7.54077 79.8824C7.25057 80.3765 7.10547 80.9333 7.10547 81.5529C7.10547 82.1804 7.25449 82.7412 7.55253 83.2353C7.85057 83.7294 8.2741 84.1176 8.82312 84.4C9.37214 84.6745 10.0035 84.8118 10.7172 84.8118C11.8623 84.8118 12.7329 84.4706 13.329 83.7882L12.3525 82.7294C12.1329 82.9412 11.8937 83.098 11.6349 83.2C11.3839 83.2941 11.0937 83.3412 10.7643 83.3412C10.2859 83.3412 9.88587 83.2275 9.5643 83C9.24273 82.7725 9.03881 82.4627 8.95253 82.0706H13.7408ZM9.44665 80.0353C9.729 79.8 10.078 79.6824 10.4937 79.6824C10.9016 79.6824 11.2466 79.8039 11.529 80.0471C11.8114 80.2824 11.9839 80.6 12.0466 81H8.929C8.99175 80.5922 9.1643 80.2706 9.44665 80.0353ZM17.7123 78.3882H15.8887V84.7176H17.7123V82.3529H20.4652V84.7176H22.3005V78.3882H20.4652V80.8588H17.7123V78.3882ZM31.8574 86.0824V83.2118H30.9515V78.3882H25.4339L25.3515 80.5765C25.3123 81.4157 25.2182 82.0627 25.0692 82.5176C24.9201 82.9725 24.6496 83.2039 24.2574 83.2118H23.9986V86.0824H25.7045V84.7176H30.1515V86.0824H31.8574ZM26.8574 82.2824C26.9358 81.8745 26.9868 81.349 27.0103 80.7059L27.0456 79.8941H29.1162V83.2118H26.4456C26.6496 83 26.7868 82.6902 26.8574 82.2824ZM39.8359 82.0706C39.8594 81.7647 39.8712 81.6 39.8712 81.5765C39.8712 80.9176 39.7261 80.3412 39.4359 79.8471C39.1535 79.3451 38.7614 78.9608 38.2594 78.6941C37.7575 78.4275 37.1967 78.2941 36.5771 78.2941C35.9418 78.2941 35.3653 78.4353 34.8477 78.7176C34.3379 78.9922 33.9339 79.3804 33.6359 79.8824C33.3457 80.3765 33.2006 80.9333 33.2006 81.5529C33.2006 82.1804 33.3496 82.7412 33.6477 83.2353C33.9457 83.7294 34.3692 84.1176 34.9182 84.4C35.4673 84.6745 36.0986 84.8118 36.8124 84.8118C37.9575 84.8118 38.8281 84.4706 39.4241 83.7882L38.4477 82.7294C38.2281 82.9412 37.9888 83.098 37.73 83.2C37.479 83.2941 37.1888 83.3412 36.8594 83.3412C36.381 83.3412 35.981 83.2275 35.6594 83C35.3379 82.7725 35.1339 82.4627 35.0477 82.0706H39.8359ZM35.5418 80.0353C35.8241 79.8 36.1731 79.6824 36.5888 79.6824C36.9967 79.6824 37.3418 79.8039 37.6241 80.0471C37.9065 80.2824 38.079 80.6 38.1418 81H35.0241C35.0869 80.5922 35.2594 80.2706 35.5418 80.0353ZM47.3133 78.7059C46.8349 78.4314 46.3015 78.2941 45.7133 78.2941C44.8427 78.2941 44.18 78.5686 43.7251 79.1176V78.3882H41.9721V87H43.8074V84.0471C44.2701 84.5569 44.9054 84.8118 45.7133 84.8118C46.3015 84.8118 46.8349 84.6784 47.3133 84.4118C47.7996 84.1373 48.18 83.7569 48.4545 83.2706C48.729 82.7765 48.8662 82.2039 48.8662 81.5529C48.8662 80.902 48.729 80.3333 48.4545 79.8471C48.18 79.3529 47.7996 78.9725 47.3133 78.7059ZM46.5486 82.8353C46.2505 83.149 45.8662 83.3059 45.3956 83.3059C44.925 83.3059 44.5368 83.149 44.2309 82.8353C43.9329 82.5137 43.7839 82.0863 43.7839 81.5529C43.7839 81.0196 43.9329 80.5961 44.2309 80.2824C44.5368 79.9608 44.925 79.8 45.3956 79.8C45.8662 79.8 46.2505 79.9608 46.5486 80.2824C46.8545 80.5961 47.0074 81.0196 47.0074 81.5529C47.0074 82.0863 46.8545 82.5137 46.5486 82.8353ZM52.6819 78.3882H50.8584V84.7176H52.6819V82.3529H55.4349V84.7176H57.2702V78.3882H55.4349V80.8588H52.6819V78.3882ZM64.4506 79C63.9251 78.5294 63.1722 78.2941 62.1918 78.2941C61.682 78.2941 61.1839 78.3608 60.6977 78.4941C60.2192 78.6274 59.8075 78.8157 59.4624 79.0588L60.1212 80.3412C60.3486 80.1608 60.6231 80.0196 60.9447 79.9176C61.2741 79.8078 61.6075 79.7529 61.9447 79.7529C62.431 79.7529 62.7957 79.8627 63.0388 80.0824C63.282 80.2941 63.4035 80.6 63.4035 81H61.9447C61.0192 81 60.333 81.1686 59.8859 81.5059C59.4467 81.8431 59.2271 82.3059 59.2271 82.8941C59.2271 83.2627 59.3212 83.5922 59.5094 83.8824C59.6977 84.1725 59.9683 84.4 60.3212 84.5647C60.682 84.7294 61.1055 84.8118 61.5918 84.8118C62.533 84.8118 63.1761 84.5176 63.5212 83.9294V84.7176H65.2388V81.1059C65.2388 80.1647 64.9761 79.4627 64.4506 79ZM62.8859 83.3647C62.6428 83.5059 62.3643 83.5765 62.0506 83.5765C61.729 83.5765 61.4741 83.5098 61.2859 83.3765C61.1055 83.2353 61.0153 83.0471 61.0153 82.8118C61.0153 82.3176 61.3918 82.0706 62.1447 82.0706H63.4035V82.7176C63.3016 83 63.129 83.2157 62.8859 83.3647ZM76.2943 79C75.7689 78.5294 75.0159 78.2941 74.0355 78.2941C73.5257 78.2941 73.0277 78.3608 72.5414 78.4941C72.063 78.6274 71.6512 78.8157 71.3061 79.0588L71.9649 80.3412C72.1924 80.1608 72.4669 80.0196 72.7885 79.9176C73.1179 79.8078 73.4512 79.7529 73.7885 79.7529C74.2747 79.7529 74.6395 79.8627 74.8826 80.0824C75.1257 80.2941 75.2473 80.6 75.2473 81H73.7885C72.863 81 72.1767 81.1686 71.7296 81.5059C71.2904 81.8431 71.0708 82.3059 71.0708 82.8941C71.0708 83.2627 71.1649 83.5922 71.3532 83.8824C71.5414 84.1725 71.812 84.4 72.1649 84.5647C72.5257 84.7294 72.9493 84.8118 73.4355 84.8118C74.3767 84.8118 75.0198 84.5176 75.3649 83.9294V84.7176H77.0826V81.1059C77.0826 80.1647 76.8198 79.4627 76.2943 79ZM74.7296 83.3647C74.4865 83.5059 74.2081 83.5765 73.8943 83.5765C73.5728 83.5765 73.3179 83.5098 73.1296 83.3765C72.9493 83.2353 72.8591 83.0471 72.8591 82.8118C72.8591 82.3176 73.2355 82.0706 73.9885 82.0706H75.2473V82.7176C75.1453 83 74.9728 83.2157 74.7296 83.3647ZM81.2063 79.8941H84.4534V78.3882H79.3828V84.7176H81.2063V79.8941ZM91.9853 82.0706C92.0088 81.7647 92.0205 81.6 92.0205 81.5765C92.0205 80.9176 91.8755 80.3412 91.5853 79.8471C91.3029 79.3451 90.9107 78.9608 90.4088 78.6941C89.9068 78.4275 89.346 78.2941 88.7264 78.2941C88.0911 78.2941 87.5147 78.4353 86.997 78.7176C86.4872 78.9922 86.0833 79.3804 85.7853 79.8824C85.4951 80.3765 85.35 80.9333 85.35 81.5529C85.35 82.1804 85.499 82.7412 85.797 83.2353C86.0951 83.7294 86.5186 84.1176 87.0676 84.4C87.6166 84.6745 88.248 84.8118 88.9617 84.8118C90.1068 84.8118 90.9774 84.4706 91.5735 83.7882L90.597 82.7294C90.3774 82.9412 90.1382 83.098 89.8794 83.2C89.6284 83.2941 89.3382 83.3412 89.0088 83.3412C88.5303 83.3412 88.1303 83.2275 87.8088 83C87.4872 82.7725 87.2833 82.4627 87.197 82.0706H91.9853ZM87.6911 80.0353C87.9735 79.8 88.3225 79.6824 88.7382 79.6824C89.146 79.6824 89.4911 79.8039 89.7735 80.0471C90.0558 80.2824 90.2284 80.6 90.2911 81H87.1735C87.2362 80.5922 87.4088 80.2706 87.6911 80.0353ZM95.9568 78.3882H94.1332V84.7176H95.9568V82.3529H98.7097V84.7176H100.545V78.3882H98.7097V80.8588H95.9568V78.3882ZM110.137 86.1059V83.2118H109.22V78.3882H107.384V83.2118H104.831V78.3882H103.008V84.7176H108.431V86.1059H110.137ZM113.821 78.3882H111.985V84.7176H113.821V78.3882ZM112.08 77.2118C112.291 77.4078 112.566 77.5059 112.903 77.5059C113.24 77.5059 113.515 77.4078 113.727 77.2118C113.938 77.0078 114.044 76.7529 114.044 76.4471C114.044 76.1647 113.938 75.9294 113.727 75.7412C113.515 75.5529 113.24 75.4588 112.903 75.4588C112.566 75.4588 112.291 75.5569 112.08 75.7529C111.868 75.949 111.762 76.1922 111.762 76.4824C111.762 76.7725 111.868 77.0157 112.08 77.2118ZM120.276 84.7176H121.911V78.3882H118.888C117.946 78.3882 117.205 78.5922 116.664 79C116.131 79.4 115.864 79.9725 115.864 80.7176C115.864 81.1804 115.978 81.5765 116.205 81.9059C116.441 82.2275 116.778 82.4745 117.217 82.6471L115.77 84.7176H117.723L118.923 82.9059H120.276V84.7176ZM118.029 80.0941C118.233 79.9529 118.531 79.8824 118.923 79.8824H120.276V81.6824H118.899C118.507 81.6824 118.213 81.6118 118.017 81.4706C117.829 81.3216 117.735 81.0902 117.735 80.7765C117.735 80.4627 117.833 80.2353 118.029 80.0941ZM35.4545 0.0742645C42.2578 0.0742645 48.1844 1.19646 53.2343 3.44086C58.2842 5.68526 62.1769 8.91159 64.9122 13.1198C67.6476 17.3281 69.0153 22.2377 69.0153 27.8487C69.0153 33.4597 67.6476 38.3693 64.9122 42.5776C62.1769 46.7858 58.2842 50.0121 53.2343 52.2565C48.1844 54.5009 42.2578 55.6231 35.4545 55.6231H24.8287V73.7186H0V0.0742645H35.4545ZM33.8764 36.4756C37.243 36.4756 39.768 35.7392 41.4513 34.2663C43.1346 32.7233 43.9762 30.5841 43.9762 27.8487C43.9762 25.1133 43.1346 23.0092 41.4513 21.5363C39.768 19.9933 37.243 19.2218 33.8764 19.2218H24.8287V36.4756H33.8764ZM30.2773 62.7747H27.2084V59.6318H37.5983V62.7747H34.5294V70.3915H30.2773V62.7747ZM45.5701 68.7276H41.392L40.7449 70.3915H36.6777L41.4104 59.6318H45.5886L50.3214 70.3915H46.1987L45.5701 68.7276ZM44.4794 65.8806L43.4995 63.3478L42.5012 65.8806H44.4794ZM55.0754 70.6688C54.188 70.6688 53.3006 70.5764 52.4132 70.3915C51.5381 70.1943 50.8109 69.9355 50.2317 69.615L51.5813 66.6201C52.1236 66.9282 52.7213 67.1685 53.3745 67.3411C54.0278 67.5013 54.6748 67.5814 55.3157 67.5814C55.9813 67.5814 56.314 67.4643 56.314 67.2301C56.314 67.0699 56.1908 66.9528 55.9443 66.8789C55.7101 66.7926 55.3034 66.694 54.7241 66.5831C53.886 66.4352 53.1712 66.2626 52.5796 66.0654C52.0003 65.8682 51.4888 65.5293 51.0451 65.0486C50.6014 64.568 50.3796 63.9147 50.3796 63.089C50.3796 62.3988 50.5953 61.7702 51.0266 61.2032C51.458 60.6363 52.0804 60.1864 52.8939 59.8537C53.7073 59.5209 54.6686 59.3545 55.7779 59.3545C56.542 59.3545 57.2939 59.4346 58.0334 59.5948C58.7729 59.7551 59.4261 59.9892 59.993 60.2974L58.7359 63.2738C57.7622 62.7192 56.7269 62.4419 55.63 62.4419C55.2726 62.4419 55.0014 62.485 54.8165 62.5713C54.6317 62.6453 54.5392 62.75 54.5392 62.8856C54.5392 63.0335 54.6563 63.1506 54.8905 63.2369C55.137 63.3108 55.5314 63.3909 56.0737 63.4772C56.9118 63.6128 57.6266 63.7792 58.2182 63.9764C58.8222 64.1736 59.346 64.5063 59.7897 64.9747C60.2457 65.443 60.4737 66.0839 60.4737 66.8974C60.4737 67.5999 60.2703 68.2408 59.8636 68.8201C59.4569 69.387 58.8468 69.8369 58.0334 70.1696C57.2199 70.5024 56.2339 70.6688 55.0754 70.6688ZM61.587 59.6318H65.8391V63.2553H68.5013V59.6318H72.7534V70.3915H68.5013V66.6201H65.8391V70.3915H61.587V59.6318ZM84.1039 67.3411V70.3915H74.7123V59.6318H83.9005V62.6822H78.8905V63.5142H83.272V66.3612H78.8905V67.3411H84.1039ZM96.7473 59.6318V70.3915H93.2531L89.7221 66.3058V70.3915H85.5809V59.6318H89.075L92.6061 63.7545V59.6318H96.7473ZM103.365 67.1562L102.884 67.7108V70.3915H98.7062V59.6318H102.884V62.9595L105.842 59.6318H110.464L106.157 64.3646L110.649 70.3915H105.75L103.365 67.1562ZM116.516 70.6688C115.32 70.6688 114.242 70.4285 113.281 69.9478C112.332 69.4548 111.586 68.7769 111.044 67.9142C110.501 67.0514 110.23 66.0839 110.23 65.0117C110.23 63.9394 110.501 62.9719 111.044 62.1091C111.586 61.2464 112.332 60.5747 113.281 60.094C114.242 59.601 115.32 59.3545 116.516 59.3545C117.711 59.3545 118.784 59.601 119.733 60.094C120.682 60.5747 121.427 61.2464 121.97 62.1091C122.512 62.9719 122.783 63.9394 122.783 65.0117C122.783 66.0839 122.512 67.0514 121.97 67.9142C121.427 68.7769 120.682 69.4548 119.733 69.9478C118.784 70.4285 117.711 70.6688 116.516 70.6688ZM116.516 67.3411C117.095 67.3411 117.57 67.1254 117.939 66.694C118.309 66.2626 118.494 65.7018 118.494 65.0117C118.494 64.3215 118.309 63.7607 117.939 63.3293C117.57 62.8979 117.095 62.6822 116.516 62.6822C115.937 62.6822 115.456 62.9041 115.074 63.3478C114.704 63.7792 114.519 64.3338 114.519 65.0117C114.519 65.6895 114.704 66.2503 115.074 66.694C115.456 67.1254 115.937 67.3411 116.516 67.3411Z" fill="#111111"></path> </svg> 