<?xml version="1.0" encoding="UTF-8"?> <svg xmlns="http://www.w3.org/2000/svg" width="60" height="52" viewBox="0 0 60 52" fill="none"> <path d="M31.3636 30V45H28.6364V30H31.3636ZM0 10.9091V4.09091C0 3.00593 0.431005 1.96539 1.1982 1.1982C1.96539 0.431005 3.00593 0 4.09091 0H55.9091C56.9941 0 58.0346 0.431005 58.8018 1.1982C59.569 1.96539 60 3.00593 60 4.09091V10.9091H0ZM13.6364 6.81818H17.7273V4.09091H13.6364V6.81818ZM6.81818 6.81818H10.9091V4.09091H6.81818V6.81818ZM17.7273 21.8182V45H20.4545V21.8182H17.7273ZM39.5455 36.8182V45H42.2727V36.8182H39.5455ZM60 13.6364V47.7273C60 48.8122 59.569 49.8528 58.8018 50.62C58.0346 51.3872 57.085 52 56 52H4.18182C3.09684 52 1.96539 51.3872 1.1982 50.62C0.431005 49.8528 0 48.8122 0 47.7273V13.6364H60ZM36.8182 30H39.5455V31.3636H42.2727V30H43.6364C43.998 30 44.3449 29.8563 44.6006 29.6006C44.8563 29.3449 45 28.998 45 28.6364V24.5455C45 24.1838 44.8563 23.8369 44.6006 23.5812C44.3449 23.3255 43.998 23.1818 43.6364 23.1818H39.5455V21.8182H45V19.0909H42.2727V17.7273H39.5455V19.0909H38.1818C37.8202 19.0909 37.4733 19.2346 37.2176 19.4903C36.9619 19.746 36.8182 20.0929 36.8182 20.4545V24.5455C36.8182 24.9071 36.9619 25.254 37.2176 25.5097C37.4733 25.7654 37.8202 25.9091 38.1818 25.9091H42.2727V27.2727H36.8182V30ZM47.7273 45H45V35.4545C45 35.0929 44.8563 34.746 44.6006 34.4903C44.3449 34.2346 43.998 34.0909 43.6364 34.0909H38.1818C37.8202 34.0909 37.4733 34.2346 37.2176 34.4903C36.9619 34.746 36.8182 35.0929 36.8182 35.4545V45H34.0909V28.6364C34.0909 28.2747 33.9472 27.9279 33.6915 27.6721C33.4358 27.4164 33.0889 27.2727 32.7273 27.2727H27.2727C26.9111 27.2727 26.5642 27.4164 26.3085 27.6721C26.0528 27.9279 25.9091 28.2747 25.9091 28.6364V45H23.1818V20.4545C23.1818 20.0929 23.0382 19.746 22.7824 19.4903C22.5267 19.2346 22.1798 19.0909 21.8182 19.0909H16.3636C16.002 19.0909 15.6551 19.2346 15.3994 19.4903C15.1437 19.746 15 20.0929 15 20.4545V45H12.2727V47.7273H47.7273V45Z" fill="#111111"></path> <path d="M0 4.09091V10.9091H60V4.09091C60 3.00593 59.569 1.96539 58.8018 1.1982C58.0346 0.431005 56.9941 0 55.9091 0H4.09091C3.00593 0 1.96539 0.431005 1.1982 1.1982C0.431005 1.96539 0 3.00593 0 4.09091Z" fill="#1550E7"></path> <rect x="14" y="4" width="4" height="3" fill="white"></rect> <rect x="7" y="4" width="4" height="3" fill="white"></rect> <rect width="4" height="4" fill="#1550E7"></rect> <rect x="56" width="4" height="4" fill="#1550E7"></rect> <rect y="43" width="6" height="9" fill="#111111"></rect> <rect x="54" y="43" width="6" height="9" fill="#111111"></rect> </svg> 