<?xml version="1.0" encoding="UTF-8"?> <svg xmlns="http://www.w3.org/2000/svg" width="25" height="25" viewBox="0 0 25 25" fill="none"> <path d="M10.1437 5.78125C10.3522 5.57292 10.3522 5.26042 10.1437 5.05208L5.24368 0.15625C5.03517 -0.0520833 4.72241 -0.0520833 4.5139 0.15625L2.84582 1.82292L8.47559 7.44792L10.1437 5.78125ZM10.3522 14.6354C7.79793 12.0833 6.599 9.47917 7.48517 8.48958L1.80327 2.86458L0.76072 3.90625C-0.0211918 4.6875 -0.177574 5.83333 0.187318 7.34375C1.75114 13.125 11.8639 23.2292 17.65 24.7917C18.1713 24.9479 18.6404 25 19.0575 25C19.8915 25 20.5692 24.7396 21.0383 24.2188L22.133 23.125L16.5032 17.5521C15.5128 18.3854 12.8543 17.1875 10.3522 14.6354ZM24.8436 19.7396L19.9436 14.8437C19.7351 14.6354 19.4224 14.6354 19.2139 14.8437L17.5458 16.5104L23.1755 22.1354L24.8436 20.4687C25.0521 20.2604 25.0521 19.9479 24.8436 19.7396Z" fill="#111111"></path> <path d="M10.1437 5.05208C10.3522 5.26042 10.3522 5.57292 10.1437 5.78125L8.47559 7.44792L2.84582 1.82292L4.5139 0.15625C4.72241 -0.0520833 5.03517 -0.0520833 5.24368 0.15625L10.1437 5.05208Z" fill="#111111"></path> <path d="M19.9438 14.8438L24.8437 19.7396C25.0523 19.9479 25.0523 20.2604 24.8437 20.4687L23.1757 22.1354L17.5459 16.5104L19.214 14.8438C19.4225 14.6354 19.7353 14.6354 19.9438 14.8438Z" fill="#1550E7"></path> <path d="M10.1436 5.05208C10.3521 5.26042 10.3521 5.57292 10.1436 5.78125L8.47547 7.44792L2.8457 1.82292L4.51378 0.15625C4.72229 -0.0520833 5.03506 -0.0520833 5.24357 0.15625L10.1436 5.05208Z" fill="#1550E7"></path> </svg> 