<?xml version="1.0" encoding="UTF-8"?> <svg xmlns="http://www.w3.org/2000/svg" width="64" height="62" viewBox="0 0 64 62" fill="none"> <path d="M27.8602 54.38H11.0002C10.4698 54.38 9.9611 54.1693 9.58603 53.7942C9.21096 53.4191 9.00024 52.9104 9.00024 52.38C9.00024 51.8496 9.21096 51.3409 9.58603 50.9658C9.9611 50.5907 10.4698 50.38 11.0002 50.38H26.4802C26.1573 48.9425 24.9963 45.4733 25.0002 44C24.9971 42.3259 26.2122 42.6585 26.6402 41.04H11.0002C10.4698 41.04 9.9611 40.8293 9.58603 40.4542C9.21096 40.0791 9.00024 39.5704 9.00024 39.04C9.00024 38.5096 9.21096 38.0009 9.58603 37.6258C9.9611 37.2507 10.4698 37.04 11.0002 37.04L27.1402 35.04C29.2368 30.8719 32.7247 29.8679 37.0002 28L12.0002 27.7C11.4698 27.7 10.9611 27.4893 10.586 27.1142C10.211 26.7391 10.0002 26.2304 10.0002 25.7C10.0002 25.1696 10.211 24.6609 10.586 24.2858C10.9611 23.9107 11.4698 23.7 12.0002 23.7H41.0002C41.5307 23.7 42.0394 23.9107 42.4145 24.2858C42.7895 24.6609 40.5002 21.9696 40.5002 22.5C40.5001 22.859 40.6834 23.3291 40.5002 23.6378C42.2183 23.1541 43.2154 23.9939 45.0002 24C45.6802 24 46.3402 24 47.0002 24.1V6C47.0002 4.4087 46.3681 2.88258 45.2429 1.75736C44.1177 0.632141 42.5915 0 41.0002 0H7.00024C5.40894 0 3.88282 0.632141 2.7576 1.75736C1.63238 2.88258 1.00024 4.4087 1.00024 6V54C1.00024 55.5913 0.875026 57.8748 2.00024 59C3.12546 60.1252 5.40894 60 7.00024 60H33.0002C30.3542 58.0076 29.2443 57.3892 27.8602 54.38ZM12.0002 10.38H41.0002C41.5307 10.38 42.0394 10.5907 42.4145 10.9658C42.7895 11.3409 43.0002 11.8496 43.0002 12.38C43.0002 12.9104 42.7895 13.4191 42.4145 13.7942C42.0394 14.1693 41.5307 14.38 41.0002 14.38H12.0002C11.4698 14.38 10.9611 14.1693 10.586 13.7942C10.211 13.4191 10.0002 12.9104 10.0002 12.38C10.0002 11.8496 10.211 11.3409 10.586 10.9658C10.9611 10.5907 11.4698 10.38 12.0002 10.38Z" fill="#1550E7"></path> <path d="M29.86 54.38H13C12.4696 54.38 11.9609 54.1693 11.5858 53.7942C11.2107 53.4191 11 52.9104 11 52.38C11 51.8496 11.2107 51.3409 11.5858 50.9658C11.9609 50.5907 12.4696 50.38 13 50.38H28.48C28.157 48.9425 27.996 47.4733 28 46C27.9969 44.3259 28.212 42.6585 28.64 41.04H13C12.4696 41.04 11.9609 40.8293 11.5858 40.4542C11.2107 40.0791 11 39.5704 11 39.04C11 38.5096 11.2107 38.0009 11.5858 37.6258C11.9609 37.2507 12.4696 37.04 13 37.04H30.14C32.2366 32.8719 35.7245 29.5679 40 27.7H13C12.4696 27.7 11.9609 27.4893 11.5858 27.1142C11.2107 26.7391 11 26.2304 11 25.7C11 25.1696 11.2107 24.6609 11.5858 24.2858C11.9609 23.9107 12.4696 23.7 13 23.7H41C41.5304 23.7 42.0391 23.9107 42.4142 24.2858C42.7893 24.6609 43 25.1696 43 25.7C42.9999 26.059 42.9032 26.4113 42.72 26.72C44.4381 26.2362 46.2151 25.9939 48 26C48.68 26 49.34 26 50 26.1V8C50 6.4087 49.3679 4.88258 48.2426 3.75736C47.1174 2.63214 45.5913 2 44 2H10C8.4087 2 6.88258 2.63214 5.75736 3.75736C4.63214 4.88258 4 6.4087 4 8V56C4 57.5913 4.63214 59.1174 5.75736 60.2426C6.88258 61.3679 8.4087 62 10 62H36C33.3539 60.0076 31.2441 57.3892 29.86 54.38ZM13 10.38H41C41.5304 10.38 42.0391 10.5907 42.4142 10.9658C42.7893 11.3409 43 11.8496 43 12.38C43 12.9104 42.7893 13.4191 42.4142 13.7942C42.0391 14.1693 41.5304 14.38 41 14.38H13C12.4696 14.38 11.9609 14.1693 11.5858 13.7942C11.2107 13.4191 11 12.9104 11 12.38C11 11.8496 11.2107 11.3409 11.5858 10.9658C11.9609 10.5907 12.4696 10.38 13 10.38Z" fill="#111111"></path> <path d="M48 30C44.8355 30 41.7421 30.9384 39.1109 32.6965C36.4797 34.4546 34.4289 36.9534 33.2179 39.8771C32.0069 42.8007 31.6901 46.0177 32.3074 49.1214C32.9248 52.2251 34.4487 55.0761 36.6863 57.3137C38.9239 59.5513 41.7749 61.0752 44.8786 61.6926C47.9823 62.3099 51.1993 61.9931 54.1229 60.7821C57.0466 59.5711 59.5454 57.5203 61.3035 54.8891C63.0616 52.2579 64 49.1645 64 46C64 41.7565 62.3143 37.6869 59.3137 34.6863C56.3131 31.6857 52.2435 30 48 30ZM53.42 48.58C53.6075 48.7659 53.7563 48.9871 53.8578 49.2308C53.9593 49.4746 54.0116 49.736 54.0116 50C54.0116 50.264 53.9593 50.5254 53.8578 50.7692C53.7563 51.0129 53.6075 51.2341 53.42 51.42C53.2341 51.6075 53.0129 51.7562 52.7692 51.8578C52.5254 51.9593 52.264 52.0116 52 52.0116C51.736 52.0116 51.4746 51.9593 51.2309 51.8578C50.9871 51.7562 50.7659 51.6075 50.58 51.42L48 48.82L45.42 51.42C45.2341 51.6075 45.0129 51.7562 44.7692 51.8578C44.5254 51.9593 44.264 52.0116 44 52.0116C43.736 52.0116 43.4746 51.9593 43.2309 51.8578C42.9871 51.7562 42.7659 51.6075 42.58 51.42C42.3926 51.2341 42.2438 51.0129 42.1422 50.7692C42.0407 50.5254 41.9884 50.264 41.9884 50C41.9884 49.736 42.0407 49.4746 42.1422 49.2308C42.2438 48.9871 42.3926 48.7659 42.58 48.58L45.18 46L42.58 43.42C42.2034 43.0434 41.9918 42.5326 41.9918 42C41.9918 41.4674 42.2034 40.9566 42.58 40.58C42.9566 40.2034 43.4674 39.9918 44 39.9918C44.5326 39.9918 45.0434 40.2034 45.42 40.58L48 43.18L50.58 40.58C50.9566 40.2034 51.4674 39.9918 52 39.9918C52.5326 39.9918 53.0434 40.2034 53.42 40.58C53.7966 40.9566 54.0082 41.4674 54.0082 42C54.0082 42.5326 53.7966 43.0434 53.42 43.42L50.82 46L53.42 48.58Z" fill="#111111"></path> <rect x="1" width="6" height="6" fill="#1550E7"></rect> <rect x="1" y="55" width="6" height="7" fill="#1550E7"></rect> <rect x="40" width="6" height="6" fill="#1550E7"></rect> <rect x="4" y="2" width="9" height="7" fill="#111111"></rect> <rect x="4" y="55" width="9" height="7" fill="#111111"></rect> <rect x="40" y="2" width="10" height="7" fill="#111111"></rect> </svg> 