<?xml version="1.0" encoding="UTF-8"?> <svg xmlns="http://www.w3.org/2000/svg" width="25" height="16" viewBox="0 0 25 16" fill="none"> <path d="M7.6372 7.92683L0 12.8994V2.95427L7.6372 7.92683ZM17.3628 7.92683L25 12.8994V2.95427L17.3628 7.92683ZM16.247 8.65549L12.8323 10.878C12.7317 10.9421 12.6159 10.9756 12.5 10.9756C12.3841 10.9756 12.2683 10.9421 12.1677 10.878L8.75305 8.65549L0.506098 14.0244L0.0274391 14.3354C0.176829 15.1951 0.926829 15.8537 1.82927 15.8537H23.1707C24.0732 15.8537 24.8232 15.1982 24.9726 14.3354L24.4909 14.0244L16.247 8.65549ZM12.5 9.6372L24.4909 1.82927L24.9726 1.51829C24.8232 0.655488 24.0732 0 23.1707 0H1.82927C0.926829 0 0.176829 0.658536 0.0274391 1.51829L0.506098 1.82927L12.5 9.6372Z" fill="#111111"></path> <path d="M25.0005 12.8992L17.3633 7.92666L25.0005 2.9541V12.8992Z" fill="#1550E7"></path> </svg> 