<?xml version="1.0" encoding="UTF-8"?> <svg xmlns="http://www.w3.org/2000/svg" width="75" height="75" viewBox="0 0 75 75" fill="none"> <path d="M74.7893 49.931L51.8146 1.25977C51.6368 0.882917 51.3555 0.564381 51.0035 0.341326C50.6516 0.118271 50.2434 -0.000107307 49.8267 7.29869e-08H35.9795L52.0196 8.02007C53.1172 8.56434 54.0404 9.40516 54.6845 10.4472C55.3287 11.4893 55.668 12.691 55.6642 13.9161V61.389L73.7405 52.8563C74.0014 52.7331 74.2356 52.5597 74.4295 52.346C74.6235 52.1323 74.7734 51.8825 74.8708 51.6109C74.9682 51.3392 75.0111 51.0511 74.9971 50.7628C74.9832 50.4746 74.9125 50.1919 74.7893 49.931Z" fill="#1550E7"></path> <path d="M25.6348 20.5078C27.2528 20.5078 28.5645 19.1962 28.5645 17.5781C28.5645 15.9601 27.2528 14.6484 25.6348 14.6484C24.0168 14.6484 22.7051 15.9601 22.7051 17.5781C22.7051 19.1962 24.0168 20.5078 25.6348 20.5078Z" fill="#1550E7"></path> <path d="M50.0547 11.9507L26.6174 0.232101C26.3123 0.079466 25.9758 0 25.6345 0C25.2933 0 24.9568 0.079466 24.6516 0.232101L1.21434 11.9507C0.849339 12.1333 0.542391 12.4139 0.327907 12.7611C0.113422 13.1083 -0.000122064 13.5084 9.84719e-08 13.9166V72.8027C9.84719e-08 73.3855 0.231495 73.9444 0.643559 74.3564C1.05562 74.7685 1.6145 75 2.19725 75H49.0718C49.6546 75 50.2135 74.7685 50.6255 74.3564C51.0376 73.9444 51.2691 73.3855 51.2691 72.8027V13.9166C51.2692 13.5084 51.1557 13.1083 50.9412 12.7611C50.7267 12.4139 50.4197 12.1333 50.0547 11.9507ZM27.5256 60.4703V62.9503C27.5256 63.2417 27.4099 63.5211 27.2039 63.7271C26.9978 63.9332 26.7184 64.0489 26.427 64.0489H24.3909C24.0995 64.0489 23.8201 63.9332 23.6141 63.7271C23.408 63.5211 23.2923 63.2417 23.2923 62.9503V60.712C21.5887 60.5157 19.9085 59.9445 18.807 59.1578C18.6124 59.0186 18.4685 58.8197 18.3971 58.5913C18.3257 58.3629 18.3308 58.1175 18.4115 57.8922L19.1893 55.7272C19.2456 55.5702 19.3369 55.428 19.4563 55.3115C19.5758 55.195 19.7202 55.1072 19.8786 55.0548C20.037 55.0025 20.2052 54.9868 20.3706 55.0092C20.5359 55.0315 20.694 55.0912 20.8328 55.1838C22.0384 55.9629 23.4404 56.3835 24.8758 56.3966C26.5193 56.3966 27.6238 55.5646 27.6238 54.3268C27.6238 53.3513 27.1184 52.4973 24.656 51.4997C21.6854 50.3279 18.637 48.6345 18.637 44.8889C18.637 41.9358 20.5223 39.6273 23.5179 38.8011V36.4134C23.5179 36.122 23.6336 35.8426 23.8396 35.6366C24.0457 35.4305 24.3251 35.3148 24.6165 35.3148H26.6204C26.9117 35.3148 27.1912 35.4305 27.3972 35.6366C27.6032 35.8426 27.719 36.122 27.719 36.4134V38.5257C29.0102 38.6657 30.2578 39.0749 31.3811 39.7269C31.6051 39.8577 31.7755 40.0637 31.8619 40.3083C31.9482 40.553 31.945 40.8203 31.8527 41.0628L31.0456 43.1971C30.9893 43.3456 30.9015 43.4802 30.7881 43.5915C30.6748 43.7028 30.5386 43.7882 30.3891 43.8418C30.2395 43.8954 30.0801 43.916 29.9219 43.902C29.7636 43.8881 29.6103 43.84 29.4724 43.761C28.4069 43.1243 27.1862 42.7943 25.9451 42.8074C23.7845 42.8074 23.6175 44.0935 23.6175 44.4876C23.6175 45.3811 24.0979 45.9788 26.947 47.158C29.5925 48.2361 32.635 50.0012 32.635 54.0881C32.632 57.1408 30.615 59.609 27.5256 60.4703ZM25.6345 24.9028C24.186 24.9028 22.7699 24.4732 21.5655 23.6684C20.361 22.8637 19.4223 21.7198 18.8679 20.3815C18.3136 19.0431 18.1685 17.5705 18.4511 16.1498C18.7337 14.729 19.4313 13.424 20.4556 12.3997C21.4799 11.3754 22.7849 10.6778 24.2057 10.3952C25.6264 10.1126 27.0991 10.2576 28.4374 10.812C29.7757 11.3663 30.9196 12.3051 31.7244 13.5095C32.5291 14.714 32.9587 16.13 32.9587 17.5786C32.9564 19.5204 32.184 21.382 30.8109 22.755C29.4379 24.1281 27.5763 24.9005 25.6345 24.9028Z" fill="#111111"></path> </svg> 