<?xml version="1.0" encoding="UTF-8"?> <svg xmlns="http://www.w3.org/2000/svg" width="25" height="25" viewBox="0 0 25 25" fill="none"> <path d="M22.3214 2.67857H18.75V0.892857C18.75 0.656057 18.6559 0.428955 18.4885 0.261512C18.321 0.0940686 18.0939 0 17.8571 0C17.6203 0 17.3932 0.0940686 17.2258 0.261512C17.0584 0.428955 16.9643 0.656057 16.9643 0.892857V2.67857H8.03571V0.892857C8.03571 0.656057 7.94165 0.428955 7.7742 0.261512C7.60676 0.0940686 7.37966 0 7.14286 0C6.90606 0 6.67896 0.0940686 6.51151 0.261512C6.34407 0.428955 6.25 0.656057 6.25 0.892857V2.67857H2.67857C1.96817 2.67857 1.28687 2.96078 0.784535 3.46311C0.282206 3.96544 0 4.64674 0 5.35714V6.25H25V5.35714C25 4.64674 24.7178 3.96544 24.2155 3.46311C23.7131 2.96078 23.0318 2.67857 22.3214 2.67857Z" fill="#1550E7"></path> <path d="M9.82171 10.7144H5.35742V13.3929H9.82171V10.7144Z" fill="#1550E7"></path> <path d="M19.643 17.8569H15.1787V20.5355H19.643V17.8569Z" fill="#111111"></path> <path d="M19.643 10.7144H15.1787V13.3929H19.643V10.7144Z" fill="#111111"></path> <path d="M0 22.3214C0 23.0318 0.282206 23.7131 0.784535 24.2154C1.28687 24.7177 1.96817 24.9999 2.67857 24.9999H22.3214C23.0318 24.9999 23.7131 24.7177 24.2155 24.2154C24.7178 23.7131 25 23.0318 25 22.3214V8.03564H0V22.3214ZM13.3929 10.7142C13.3929 10.2406 13.581 9.78641 13.9159 9.45153C14.2508 9.11664 14.705 8.9285 15.1786 8.9285H19.6429C20.1165 8.9285 20.5707 9.11664 20.9055 9.45153C21.2404 9.78641 21.4286 10.2406 21.4286 10.7142V13.3928C21.4286 13.8664 21.2404 14.3206 20.9055 14.6555C20.5707 14.9904 20.1165 15.1785 19.6429 15.1785H15.1786C14.705 15.1785 14.2508 14.9904 13.9159 14.6555C13.581 14.3206 13.3929 13.8664 13.3929 13.3928V10.7142ZM13.3929 17.8571C13.3929 17.3835 13.581 16.9293 13.9159 16.5944C14.2508 16.2595 14.705 16.0714 15.1786 16.0714H19.6429C20.1165 16.0714 20.5707 16.2595 20.9055 16.5944C21.2404 16.9293 21.4286 17.3835 21.4286 17.8571V20.5356C21.4286 21.0092 21.2404 21.4634 20.9055 21.7983C20.5707 22.1332 20.1165 22.3214 19.6429 22.3214H15.1786C14.705 22.3214 14.2508 22.1332 13.9159 21.7983C13.581 21.4634 13.3929 21.0092 13.3929 20.5356V17.8571ZM3.57143 10.7142C3.57143 10.2406 3.75957 9.78641 4.09445 9.45153C4.42934 9.11664 4.88354 8.9285 5.35714 8.9285H9.82143C10.295 8.9285 10.7492 9.11664 11.0841 9.45153C11.419 9.78641 11.6071 10.2406 11.6071 10.7142V13.3928C11.6071 13.8664 11.419 14.3206 11.0841 14.6555C10.7492 14.9904 10.295 15.1785 9.82143 15.1785H5.35714C4.88354 15.1785 4.42934 14.9904 4.09445 14.6555C3.75957 14.3206 3.57143 13.8664 3.57143 13.3928V10.7142ZM3.57143 17.8571C3.57143 17.3835 3.75957 16.9293 4.09445 16.5944C4.42934 16.2595 4.88354 16.0714 5.35714 16.0714H9.82143C10.295 16.0714 10.7492 16.2595 11.0841 16.5944C11.419 16.9293 11.6071 17.3835 11.6071 17.8571V20.5356C11.6071 21.0092 11.419 21.4634 11.0841 21.7983C10.7492 22.1332 10.295 22.3214 9.82143 22.3214H5.35714C4.88354 22.3214 4.42934 22.1332 4.09445 21.7983C3.75957 21.4634 3.57143 21.0092 3.57143 20.5356V17.8571Z" fill="#111111"></path> <path d="M9.82171 17.8569H5.35742V20.5355H9.82171V17.8569Z" fill="#111111"></path> </svg> 