<?xml version="1.0" encoding="UTF-8"?> <svg xmlns="http://www.w3.org/2000/svg" width="26" height="25" viewBox="0 0 26 25" fill="none"> <path d="M24.3877 0.0389966L0.550575 9.39776C0.0970839 9.57582 0.0806131 10.2115 0.524232 10.4128L5.79394 12.8041C5.93667 12.869 6.04505 12.9914 6.09202 13.1409L8.35293 20.336C8.46714 20.6992 8.90639 20.8401 9.2105 20.611L13.1459 17.6461C13.3338 17.5045 13.5908 17.4979 13.7859 17.6294L20.3861 22.0822C20.7153 22.3042 21.1643 22.1158 21.2364 21.7254L25.1312 0.652259C25.2098 0.226929 24.7903 -0.11906 24.3877 0.0389966ZM9.94301 13.8246L9.23191 17.8671L7.39628 12.0791L19.9811 4.26803L9.94301 13.8246ZM3.79818 14.8803C3.59522 14.6774 3.26643 14.6774 3.06343 14.8803L0.152212 17.7913C-0.0507372 17.9943 -0.0507372 18.3231 0.152212 18.526C0.35516 18.729 0.683952 18.729 0.886958 18.526L3.79818 15.615C4.00112 15.4121 4.00112 15.0833 3.79818 14.8803ZM5.29223 21.2021L2.38128 24.113C2.17827 24.316 2.17827 24.6448 2.38128 24.8478C2.58422 25.0507 2.91301 25.0507 3.11596 24.8478L6.02697 21.9368C6.22992 21.7338 6.22992 21.405 6.02697 21.2021C5.82397 20.9991 5.49518 20.9991 5.29223 21.2021Z" fill="#111111"></path> <path d="M13.7588 21.202L10.8476 24.113C10.6446 24.3159 10.6446 24.6448 10.8476 24.8477C11.0505 25.0507 11.3793 25.0507 11.5823 24.8477L14.4935 21.9367C14.6965 21.7338 14.6965 21.405 14.4935 21.202C14.2905 20.9991 13.9617 20.9991 13.7588 21.202Z" fill="#111111"></path> <path d="M24.3877 0.0389966L0.550575 9.39776C0.0970839 9.57582 0.0806131 10.2115 0.524232 10.4128L5.79394 12.8041C5.93667 12.869 6.04505 12.9914 6.09202 13.1409L8.35293 20.336C8.46714 20.6992 8.90639 20.8401 9.2105 20.611L13.1459 17.6461C13.3338 17.5045 13.5908 17.4979 13.7859 17.6294L20.3861 22.0822C20.7153 22.3042 21.1643 22.1158 21.2364 21.7254L25.1312 0.652259C25.2098 0.226929 24.7903 -0.11906 24.3877 0.0389966ZM9.94301 13.8246L9.23191 17.8671L7.39628 12.0791L19.9811 4.26803L9.94301 13.8246ZM3.79818 14.8803C3.59522 14.6774 3.26643 14.6774 3.06343 14.8803L0.152212 17.7913C-0.0507372 17.9943 -0.0507372 18.3231 0.152212 18.526C0.35516 18.729 0.683952 18.729 0.886958 18.526L3.79818 15.615C4.00112 15.4121 4.00112 15.0833 3.79818 14.8803ZM5.29223 21.2021L2.38128 24.113C2.17827 24.316 2.17827 24.6448 2.38128 24.8478C2.58422 25.0507 2.91301 25.0507 3.11596 24.8478L6.02697 21.9368C6.22992 21.7338 6.22992 21.405 6.02697 21.2021C5.82397 20.9991 5.49518 20.9991 5.29223 21.2021Z" fill="#111111"></path> <path d="M3.06343 14.8802C3.26643 14.6773 3.59522 14.6773 3.79818 14.8802C4.00112 15.0832 4.00112 15.412 3.79818 15.6149L0.886958 18.5259C0.683952 18.7289 0.35516 18.7289 0.152212 18.5259C-0.0507372 18.323 -0.0507372 17.9942 0.152212 17.7912L3.06343 14.8802Z" fill="#1550E7"></path> <path d="M2.38175 24.113L5.2927 21.202C5.49565 20.9991 5.82444 20.9991 6.02744 21.202C6.23039 21.405 6.23039 21.7338 6.02744 21.9367L3.11644 24.8477C2.91348 25.0507 2.58469 25.0507 2.38175 24.8477C2.17874 24.6448 2.17874 24.3159 2.38175 24.113Z" fill="#1550E7"></path> <path d="M13.7588 21.202L10.8476 24.113C10.6446 24.3159 10.6446 24.6448 10.8476 24.8477C11.0505 25.0507 11.3793 25.0507 11.5823 24.8477L14.4935 21.9367C14.6965 21.7338 14.6965 21.405 14.4935 21.202C14.2905 20.9991 13.9617 20.9991 13.7588 21.202Z" fill="#1550E7"></path> </svg> 