<?xml version="1.0" encoding="UTF-8"?> <svg xmlns="http://www.w3.org/2000/svg" width="60" height="55" viewBox="0 0 60 55" fill="none"> <circle cx="35.7012" cy="30.015" r="16.4375" fill="#111111"></circle> <path fill-rule="evenodd" clip-rule="evenodd" d="M31.4158 0C29.5091 0 29.5091 2.8601 31.4158 2.8601H34.2689V5.76346C26.4456 6.23387 19.3321 10.4852 15.1611 17.1508H4.25534C2.32239 17.1235 2.32239 20.0368 4.25534 20.0095H15.9205C16.4312 20.0096 16.9032 19.7371 17.1586 19.2948C20.9855 12.6664 28.0493 8.5806 35.7024 8.57471C38.946 8.5722 42.0114 9.2978 44.7671 10.5861C46.4942 11.3939 47.7058 8.80316 45.9787 7.99543C43.2658 6.72711 40.2761 5.9417 37.129 5.75928V2.8601H39.9877C41.8944 2.8601 41.8944 0 39.9877 0H31.4158ZM50.19 10.8918C49.4006 10.8918 48.7606 11.5318 48.7606 12.3212C48.7606 13.1106 49.4006 13.7505 50.19 13.7505C50.9794 13.7505 51.6193 13.1106 51.6193 12.3212C51.6193 11.5318 50.9794 10.8918 50.19 10.8918ZM35.701 11.4334C25.4557 11.4334 17.1133 19.7699 17.1195 30.0164C17.1214 33.2841 17.9968 36.4892 19.6362 39.3099C20.582 41.0042 23.1126 39.5316 22.1069 37.8722C20.7181 35.4828 19.9798 32.772 19.9782 30.0136C19.9729 21.3142 27.0006 14.2921 35.701 14.2921C44.4015 14.2921 51.4239 21.3145 51.4239 30.015C51.4239 38.7154 44.4007 45.7416 35.701 45.7378C32.9421 45.7366 30.232 45.001 27.8424 43.6147C26.1934 42.6581 24.7585 45.1315 26.4075 46.0882C29.2293 47.7252 32.4351 48.5951 35.701 48.5965C45.9472 48.6008 54.2826 40.2603 54.2826 30.015C54.2826 19.7696 45.9464 11.4334 35.701 11.4334ZM54.0202 14.997C52.8723 15.0553 52.2591 16.3758 52.9551 17.2904C55.5856 20.8512 57.1413 25.2436 57.1413 30.015C57.1413 41.873 47.5595 51.4617 35.7024 51.4552C28.0526 51.4509 20.9915 47.3618 17.1656 40.7351C16.9102 40.2928 16.4382 40.0203 15.9274 40.0204H4.25534C2.32239 39.9931 2.32239 42.9064 4.25534 42.8791H15.1681C19.5906 49.9471 27.3207 54.3093 35.6996 54.3139C49.1036 54.3212 60 43.418 60 30.015C60 24.6209 58.2346 19.6258 55.2555 15.593C55.0014 15.2378 54.5988 15.0183 54.1626 14.997C54.1151 14.9947 54.0676 14.9947 54.0202 14.997ZM35.6773 17.1299C34.8874 17.1414 34.2566 17.7916 34.2689 18.5816V30.0136C34.2693 30.3942 34.4216 30.7589 34.6918 31.0269L40.4106 36.7457C41.7618 38.0923 43.7816 36.0655 42.4304 34.719L37.129 29.4231V18.5816C37.1416 17.7746 36.4842 17.1172 35.6773 17.1299ZM14.3417 22.8682L2.82738 22.8709C0.795158 22.8714 0.795158 25.724 2.82738 25.724H14.258C16.2338 25.724 16.3176 22.8673 14.3417 22.8682ZM1.39803 28.5842C-0.466011 28.6255 -0.466011 31.4016 1.39803 31.4429H12.8286C14.7771 31.4861 14.7771 28.541 12.8286 28.5842H1.39803ZM2.82738 34.303C0.878808 34.2598 0.878808 37.205 2.82738 37.1617H14.258C16.2066 37.2049 16.2066 34.2598 14.258 34.303H2.82738Z" fill="#111111"></path> <path d="M1.39803 31.4429C-0.466011 31.4016 -0.466011 28.6255 1.39803 28.5842H12.8286C14.7771 28.541 14.7771 31.4861 12.8286 31.4429H1.39803Z" fill="#1550E7"></path> <path d="M2.82764 37.1617C0.879067 37.2049 0.879067 34.2597 2.82764 34.303H14.2583C16.2068 34.2597 16.2068 37.2049 14.2583 37.1617H2.82764Z" fill="#1550E7"></path> <path d="M2.8269 22.8709L14.3413 22.8682C16.3171 22.8672 16.2333 25.724 14.2575 25.724H2.8269C0.794678 25.724 0.794678 22.8713 2.8269 22.8709Z" fill="#1550E7"></path> <path d="M48.7607 12.3212C48.7607 11.5318 49.4007 10.8918 50.1901 10.8918C50.9795 10.8918 51.6194 11.5318 51.6194 12.3212C51.6194 13.1106 50.9795 13.7505 50.1901 13.7505C49.4007 13.7505 48.7607 13.1106 48.7607 12.3212Z" fill="#1550E7"></path> <path d="M34.2687 18.5816C34.2564 17.7917 34.8872 17.1415 35.6771 17.1299C36.4841 17.1173 37.1415 17.7747 37.1288 18.5816V29.4232L42.4303 34.719C43.7815 36.0656 41.7617 38.0923 40.4105 36.7458L34.6917 31.027C34.4214 30.759 34.2692 30.3943 34.2687 30.0136V18.5816Z" fill="white"></path> </svg> 